<?xml version="1.0" encoding="iso-8859-1"?>
<!-- Uploaded to: SVG Repo, www.svgrepo.com, Generator: SVG Repo Mixer Tools -->
<svg fill="#000000" height="800px" width="800px" version="1.1" id="Layer_1" xmlns="http://www.w3.org/2000/svg" xmlns:xlink="http://www.w3.org/1999/xlink" 
	 viewBox="0 0 512.002 512.002" xml:space="preserve">
<g>
	<g>
		<path d="M414.846,373.265c0.953-0.882,1.796-1.892,2.461-3.044c2.348-4.06,2.348-9.106,0-13.167l-51.388-88.919
			c5.202-5.506,8.4-12.919,8.4-21.07c0-14.237-9.741-26.239-22.911-29.712v-8.44c6.094-1.161,11.837-3.677,16.901-7.452
			c3.47-2.587,4.186-7.496,1.6-10.967c-2.588-3.47-7.498-4.188-10.967-1.6c-4.465,3.328-9.778,5.087-15.37,5.087
			c-14.188,0-25.731-11.528-25.731-25.697c0-14.17,11.543-25.698,25.731-25.698s25.731,11.528,25.731,25.698
			c0,1.33-0.102,2.668-0.304,3.974c-0.66,4.278,2.272,8.281,6.549,8.941c4.267,0.66,8.281-2.271,8.941-6.548
			c0.324-2.096,0.488-4.238,0.488-6.367c0-22.813-18.573-41.372-41.404-41.372c-22.831,0-41.404,18.559-41.404,41.372
			c0,20.135,14.473,36.947,33.567,40.618v8.451c-13.17,3.472-22.911,15.475-22.911,29.712c0,8.151,3.2,15.565,8.4,21.07
			l-51.388,88.919c-2.348,4.06-2.348,9.106,0,13.168c0.666,1.151,1.508,2.162,2.461,3.044
			c-10.361,14.389-16.484,32.015-16.484,51.055c0,48.347,39.369,87.682,87.759,87.682c31.938,0,61.386-17.364,76.851-45.317
			c0.63-1.138,1.238-2.296,1.807-3.442c1.926-3.877,0.344-8.58-3.533-10.504c-3.877-1.924-8.58-0.343-10.504,3.533
			c-0.467,0.939-0.966,1.89-1.484,2.825c-12.706,22.964-36.897,37.23-63.136,37.23c-39.748,0-72.085-32.303-72.085-72.008
			c0-18.197,6.798-34.833,17.983-47.522h108.206c11.185,12.689,17.983,29.325,17.983,47.522c0,2.173-0.098,4.369-0.291,6.524
			c-0.387,4.31,2.795,8.119,7.105,8.505c4.323,0.378,8.119-2.795,8.505-7.106c0.235-2.619,0.354-5.285,0.354-7.923
			C431.33,405.279,425.206,387.653,414.846,373.265z M343.571,232.012c8.312,0,15.075,6.752,15.075,15.053
			c0,8.3-6.763,15.052-15.075,15.052c-8.312,0-15.075-6.752-15.075-15.052C328.497,238.764,335.259,232.012,343.571,232.012z
			 M357.258,284.472h-27.375l4.647-8.04c2.86,0.881,5.895,1.357,9.04,1.357c3.146,0,6.181-0.476,9.04-1.357L357.258,284.472z
			 M320.825,300.146h45.492l5.4,9.345h-56.292L320.825,300.146z M285.586,361.122l6.323-10.941h71.716
			c4.329,0,7.837-3.509,7.837-7.837c0-4.328-3.508-7.837-7.837-7.837h-62.658l5.4-9.344h74.408l20.782,35.959H285.586z"/>
	</g>
</g>
<g>
	<g>
		<path d="M239.704,246.352c0.953-0.882,1.796-1.892,2.461-3.044c2.348-4.061,2.348-9.107,0-13.167l-51.388-88.92
			c5.202-5.506,8.4-12.919,8.4-21.07c0-14.237-9.741-26.24-22.911-29.712v-8.451c19.094-3.672,33.567-20.483,33.567-40.618
			C209.834,18.559,191.261,0,168.43,0c-22.831,0-41.404,18.56-41.404,41.372c0,20.135,14.473,36.947,33.567,40.618v8.451
			c-13.17,3.472-22.911,15.475-22.911,29.712c0,8.151,3.199,15.565,8.4,21.07l-51.387,88.918c-2.349,4.06-2.349,9.106-0.001,13.168
			c0.666,1.151,1.508,2.162,2.461,3.044c-10.361,14.389-16.484,32.015-16.484,51.055c0,48.347,39.369,87.682,87.759,87.682
			s87.759-39.333,87.759-87.682C256.19,278.367,250.065,260.741,239.704,246.352z M142.699,41.372
			c0-14.171,11.543-25.698,25.731-25.698s25.731,11.528,25.731,25.698s-11.543,25.697-25.731,25.697S142.699,55.542,142.699,41.372z
			 M168.43,105.1c8.312,0,15.075,6.752,15.075,15.053c0,8.3-6.763,15.052-15.075,15.052c-8.312,0-15.075-6.752-15.075-15.052
			C153.356,111.852,160.118,105.1,168.43,105.1z M182.118,157.56h-27.375l4.647-8.041c2.86,0.881,5.895,1.357,9.04,1.357
			c3.146,0,6.181-0.477,9.04-1.357L182.118,157.56z M145.684,173.234h45.492l5.4,9.344h-56.292L145.684,173.234z M116.768,223.27
			h57.731c4.329,0,7.837-3.509,7.837-7.837c0-4.328-3.508-7.837-7.837-7.837h-48.672l5.4-9.344h74.408l5.4,9.344h-7.279
			c-4.329,0-7.837,3.509-7.837,7.837c0,4.328,3.508,7.837,7.837,7.837h16.337l6.324,10.942H110.444L116.768,223.27z M168.43,369.414
			c-39.748,0-72.085-32.302-72.085-72.008c0-18.197,6.798-34.833,17.983-47.522h108.206c11.185,12.689,17.983,29.325,17.983,47.522
			C240.516,337.112,208.178,369.414,168.43,369.414z"/>
	</g>
</g>
<g>
	<g>
		<path d="M397.371,416.482c-4.329,0-7.837,3.509-7.837,7.837c0,25.301-20.619,45.886-45.963,45.886
			c-4.329,0-7.837,3.509-7.837,7.837c0,4.328,3.508,7.837,7.837,7.837c33.986,0,61.636-27.616,61.636-61.559
			C405.208,419.99,401.7,416.482,397.371,416.482z"/>
	</g>
</g>
<g>
	<g>
		<path d="M222.23,289.569c-4.329,0-7.837,3.509-7.837,7.837c0,25.301-20.619,45.886-45.963,45.886
			c-4.329,0-7.837,3.509-7.837,7.837c0,4.328,3.508,7.837,7.837,7.837c33.986,0,61.636-27.616,61.636-61.559
			C230.067,293.078,226.558,289.569,222.23,289.569z"/>
	</g>
</g>
</svg>