<?xml version="1.0" encoding="iso-8859-1"?>
<!-- Uploaded to: SVG Repo, www.svgrepo.com, Generator: SVG Repo Mixer Tools -->
<!DOCTYPE svg PUBLIC "-//W3C//DTD SVG 1.1//EN" "http://www.w3.org/Graphics/SVG/1.1/DTD/svg11.dtd">
<svg fill="#000000" height="800px" width="800px" version="1.1" id="Capa_1" xmlns="http://www.w3.org/2000/svg" xmlns:xlink="http://www.w3.org/1999/xlink" 
	 viewBox="0 0 205.368 205.368" xml:space="preserve">
<path d="M102.684,189.387c-10.334,0-18.736-2.689-22.824-4.292c-3.134-1.229-10.422-4.438-10.422-7.695
	c0-0.543,0.221-1.063,0.612-1.439l29.753-28.696L0.612,51.6C0.221,51.223,0,50.703,0,50.16c0-4.464,18.332-14.172,30.721-19.327
	c16.284-6.776,41.987-14.853,71.963-14.853c32.569,0,59.042,8.473,71.924,13.523c15.311,6.003,30.76,14.718,30.76,20.657
	c0,0.543-0.221,1.063-0.611,1.439l-99.191,95.666l29.754,28.696c0.391,0.377,0.611,0.896,0.611,1.439
	c0,2.664-7.262,5.973-10.384,7.271C120.377,186.823,112.214,189.387,102.684,189.387z M88.842,183.706
	c3.541,0.861,7.54,1.493,11.842,1.646v-29.407L88.842,183.706z M104.684,157.051v28.296c4.078-0.164,7.908-0.814,11.346-1.699
	L104.684,157.051z M74.102,177.61c1.626,1.242,5.497,3.317,10.854,5.012l11.219-26.299L74.102,177.61z M108.391,155.549
	l11.503,26.963c5.248-1.74,9.197-3.863,11.122-5.143L108.391,155.549z M152.9,26.653L107.263,140.07l93.88-90.542
	C198.906,45.47,180.497,34.049,152.9,26.653z M4.593,49.883l92.741,89.445L52.316,27.448c-6.948,2.035-13.097,4.254-18.261,6.34
	C17.623,40.428,7.369,47.247,4.593,49.883z M56.189,26.357l44.495,110.58V19.992C84.136,20.196,68.966,22.9,56.189,26.357z
	 M104.684,19.991v115.775l44.309-110.117C135.881,22.423,120.879,20.164,104.684,19.991z"/>
</svg>