<?xml version="1.0" encoding="iso-8859-1"?>
<!-- Uploaded to: SVG Repo, www.svgrepo.com, Generator: SVG Repo Mixer Tools -->
<svg fill="#000000" height="800px" width="800px" version="1.1" id="Layer_1" xmlns="http://www.w3.org/2000/svg" xmlns:xlink="http://www.w3.org/1999/xlink" 
	 viewBox="0 0 236.4 236.4" xml:space="preserve">
<g>
	<g>
		<g>
			<path d="M220.153,68.948c5.604-14.112,3.332-30.956-7.188-42.624c-5.892-6.54-13.4-11.588-22.952-15.432
				c-9.484-3.82-19.588-6.036-30.04-6.596c-0.212-0.012-0.472-0.072-0.784-0.176V2.432l-0.196-0.196
				C158.057,0.324,152.733,0,149.409,0s-8.648,0.324-9.584,2.236l-0.196,0.196v0.964h-5.928l-1.132,1.132v5.2l1.136,1.136h5.928
				v2.276c-1.468,0.52-2.612,1.184-3.196,2.016v-0.004l-0.472,0.472v21.312c-4.908,1.348-8.348,3.532-8.348,6.588
				c0,1.068,0.428,2.032,1.184,2.9c0.604,1.74,1.2,3.484,1.84,5.216c1.456,3.952,2.96,8.04,3.972,12.124
				c2.264,9.128-13.364,30.636-22.756,43.284l-20.34-11.564V74.82l-0.088-0.088c-0.028,0.036-0.064,0.06-0.088,0.096
				c-0.764-1.828-3.892-2.872-7.312-3.48V62.4l-0.144-0.144c-0.008,0.012-0.02,0.024-0.032,0.036
				c-0.868-2.044-6.536-2.392-10.06-2.392c-3.676,0-9.684,0.372-10.148,2.66c-0.032-0.052-0.052-0.1-0.088-0.152v8.94
				c-3.928,0.696-7.476,1.976-7.488,4.356L56.065,75.7v19.784L8.913,122.296l-0.976,2.048l15.852,95.796h-1.88
				c-3.264,0-5.916,2.656-5.916,5.92v4.42c0,3.264,2.656,5.92,5.916,5.92h103.76c2.492,0,4.62-1.556,5.492-3.74
				c5.156,0.28,11.144,0.448,18.228,0.448c48.324,0,48.324-7.436,48.324-9.88c0-0.612-0.196-1.536-1.124-2.464l-0.04,0.04
				c-1.088-1.204-3.352-2.068-4.732-2.48c-0.892-0.432-1.688-0.88-2.536-1.32c-0.296-0.2-0.688-0.404-1.188-0.616
				c-12.136-6.54-19.204-14.076-21.444-22.98c-1.356-5.4,6.844-20.924,14.084-34.628c8.804-16.672,17.124-32.424,14.648-39.492
				c-0.552-1.572-2.748-4.564-7.268-10.64c-9.192-12.36-26.3-35.368-23.936-44.884c1.012-4.084,2.516-8.176,3.972-12.132
				c0.636-1.732,1.24-3.472,1.836-5.212c0.752-0.868,1.184-1.832,1.184-2.9c0-3.052-3.42-5.232-8.312-6.58V16.4
				c-0.004,0.004-0.012,0.008-0.016,0.012c-0.036-1.448-1.496-2.528-3.652-3.288v-2.628c0.164-0.044,0.316-0.072,0.436-0.06
				c3.492,0.336,7.448,0.716,11.232,1.42c12.856,2.392,23.5,6.992,32.532,14.064c11.48,8.988,16.2,23.288,12.32,37.316
				c-0.332,1.204-0.76,2.352-1.208,3.488c-8.896-1.572-19.308,4.072-25.14,14.448c-6.98,12.42-4.804,26.944,4.852,32.376
				c2.484,1.396,5.224,2.056,8.044,2.056c8.144,0,16.948-5.512,22.136-14.74C231.209,88.736,229.241,74.66,220.153,68.948z
				 M149.409,2.268c2.884,0,5.02,0.272,6.316,0.564c-1.292,0.292-3.432,0.564-6.316,0.564c-2.884,0-5.02-0.272-6.312-0.564
				C144.389,2.54,146.529,2.268,149.409,2.268z M141.901,9.728V4.844c2.116,0.672,5.272,0.816,7.508,0.816
				c2.236,0,5.392-0.144,7.508-0.816v8.88c-0.868,0.316-3.468,0.76-7.508,0.76c-4.04,0-6.64-0.444-7.508-0.76V9.728z M134.841,8.592
				V5.66h4.792v2.932H134.841z M133.653,124.008l-36.288,15.044l-5.712-38.924L133.653,124.008z M138.673,122.296l-9.188-5.224
				c2.676-11.816,10.564-20.436,19.908-20.436c11.536,0,20.92,13.092,20.92,29.188c0,16.096-9.384,29.188-20.92,29.188
				c-5.204,0-9.948-2.692-13.612-7.092l3.872-23.58L138.673,122.296z M120.113,218.88l-22.172-77l37.352-15.484L120.113,218.88z
				 M129.981,183.264c1.72,4.412,2.676,8.06,2.152,10.144c-0.956,3.812-2.84,7.364-5.572,10.696L129.981,183.264z M73.793,62.168
				c3.236,0,5.58,0.324,6.912,0.652c-1.332,0.332-3.672,0.652-6.912,0.652c-3.236,0-5.576-0.324-6.908-0.652
				C68.217,62.488,70.557,62.168,73.793,62.168z M65.829,64.872c2.216,0.72,5.588,0.872,7.964,0.872
				c2.376,0,5.752-0.148,7.968-0.872v9.46c-0.884,0.34-3.64,0.824-7.968,0.824c-4.324,0-7.08-0.484-7.964-0.824V64.872z
				 M63.557,74.236V74.8c0,0.648,0,2.62,10.236,2.62c10.236,0,10.236-1.972,10.236-2.62v-0.548c2.368,0.468,3.952,1.02,4.5,1.46
				c-1.132,0.904-6.144,2.36-14.74,2.36s-13.604-1.456-14.736-2.36C59.609,75.272,61.173,74.708,63.557,74.236z M58.905,78.788
				c4.656,2.036,13.556,2.124,14.888,2.124c1.332,0,10.232-0.088,14.888-2.124v21.968c-1.032,0.744-6.192,2.024-14.888,2.024
				c-8.696,0-13.852-1.28-14.888-2.024V78.788z M58.273,103.564c4.016,1.868,12.404,2.056,15.52,2.056
				c3.108,0,11.476-0.184,15.5-2.048l5.532,37.692c0.004,0.024,0.024,0.032,0.032,0.056c0.008,0.044,0,0.088,0.012,0.132
				l22.66,78.688H30.741l21.632-77.388l25.052-0.16c0.78-0.004,1.412-0.644,1.408-1.428c-0.004-0.78-0.64-1.408-1.416-1.408
				c0,0-0.004,0-0.008,0l-24.468,0.156L58.273,103.564z M55.913,100.14l-5.748,39.176l-36.1-15.384L55.913,100.14z M12.277,126.252
				l37.32,15.904l-21.788,77.948L12.277,126.252z M21.913,232.428c-1.076,0-1.948-0.876-1.948-1.952v-4.42
				c0-1.076,0.876-1.952,1.948-1.952h12.04l-6.528,8.324H21.913z M29.873,232.428l6.528-8.324h7.32l-6.528,8.324H29.873z
				 M39.645,232.428l6.524-8.324h7.324l-6.528,8.324H39.645z M127.625,230.48c0,1.076-0.876,1.952-1.952,1.952H49.417l6.524-8.324
				h69.732c1.076,0,1.952,0.876,1.952,1.952V230.48z M189.485,221.548c0.304,0.152,0.572,0.308,0.884,0.46
				c1.092,0.34,2.496,1.084,3.216,1.492c-0.948,1.164-7.056,5.64-44.188,5.64c-7.012,0-12.832-0.168-17.8-0.436v-2.644
				c0-0.096-0.024-0.184-0.028-0.28c4.88,0.272,10.728,0.436,17.856,0.436C177.885,226.212,186.733,223.688,189.485,221.548z
				 M164.429,50.264c-1.492,4.056-3.036,8.248-4.1,12.544c-2.596,10.46,10.732,29.552,24.604,48.208
				c3.112,4.184,6.332,8.512,6.704,9.584c1.904,5.432-6.764,21.844-14.412,36.328c-8.664,16.408-16.148,30.576-14.42,37.448
				c2.528,10.06,10.28,18.436,23.712,25.632c-2.836,1.256-11.404,3.372-37.092,3.372c-7.744,0-13.836-0.2-18.776-0.504
				c-1.056-1.64-2.884-2.732-4.972-2.732h-1.744l1.504-9.156c5.488-4.976,9.008-10.476,10.552-16.612
				c1.004-3.996-1.144-10.5-4.796-18.444l4.02-24.484c3.964,4.004,8.868,6.408,14.192,6.408c13.1,0,23.756-14.368,23.756-32.024
				c0-17.656-10.66-32.024-23.756-32.024c-10.444,0-19.316,9.148-22.492,21.8l-11.572-6.58
				c13.324-18.012,25.636-36.128,23.136-46.216c-1.064-4.296-2.608-8.488-4.1-12.54c-0.08-0.22-0.156-0.436-0.236-0.656
				c4.128,1.476,9.708,2.236,15.268,2.236s11.144-0.76,15.268-2.236C164.585,49.828,164.509,50.048,164.429,50.264z M162.857,40.54
				v-0.112c3.156,1.024,4.912,2.252,4.912,3.092c0,1.672-6.484,4.924-18.372,4.924s-18.376-3.252-18.376-4.924
				c0-0.84,1.784-2.064,4.944-3.088v0.104c0,4,12.068,4.116,13.444,4.116C150.785,44.652,162.857,44.54,162.857,40.54z
				 M149.409,42.388c-6.64,0-10.764-1.28-11.176-1.848V19.224c2.576,1.332,6.964,1.968,11.176,1.968c4.212,0,8.6-0.64,11.176-1.968
				V39.48l0.032,0.908C160.177,41.104,156.049,42.388,149.409,42.388z M160.589,16.468c-0.192,0.688-3.868,2.456-11.176,2.456
				c-7.344,0-11.02-1.788-11.176-2.444c0.064-0.272,0.736-0.72,1.948-1.164c0.88,0.708,3.184,1.44,9.228,1.44
				s8.348-0.732,9.228-1.44C159.833,15.752,160.509,16.196,160.589,16.468z M217.897,63.848
				c4.124-14.928-0.896-30.144-13.108-39.704c-9.328-7.304-20.288-12.048-33.516-14.508c-3.88-0.72-7.888-1.108-11.424-1.448
				c-0.224-0.024-0.444-0.016-0.656,0.008V8.184c0-0.532,0.064-1.1,0.244-1.664c0.144,0.024,0.284,0.036,0.42,0.044
				c10.2,0.544,20.06,2.712,29.312,6.436c9.224,3.712,16.456,8.568,22.116,14.848c9.864,10.948,12.044,26.716,6.88,39.992
				c-0.476-0.208-0.964-0.388-1.452-0.548C217.145,66.164,217.569,65.036,217.897,63.848z M221.921,99.48
				c-6.22,11.06-18.036,16.264-26.32,11.6c-8.296-4.664-9.988-17.452-3.768-28.512c4.668-8.308,12.496-13.312,19.612-13.312
				c2.36,0,4.644,0.548,6.704,1.712C226.445,75.628,228.137,88.42,221.921,99.48z"/>
			<path d="M71.181,66.708c-1.676,0-2.992,1.612-2.992,3.668c0,2.056,1.316,3.668,2.992,3.668s2.992-1.612,2.992-3.668
				C74.173,68.32,72.861,66.708,71.181,66.708z M71.181,71.772c-0.288,0-0.72-0.556-0.72-1.4c0-0.84,0.432-1.396,0.72-1.396
				c0.288,0,0.724,0.556,0.724,1.396C71.905,71.216,71.469,71.772,71.181,71.772z"/>
			<path d="M50.033,182.168c0,13.08,10.66,23.72,23.756,23.72c13.096,0,23.756-10.64,23.756-23.72
				c0-13.08-10.66-23.724-23.756-23.724C60.693,158.444,50.033,169.088,50.033,182.168z M94.713,182.168
				c0,11.516-9.384,20.884-20.92,20.884c-11.536,0-20.92-9.368-20.92-20.884s9.384-20.888,20.92-20.888
				C85.329,161.28,94.713,170.652,94.713,182.168z"/>
		</g>
	</g>
</g>
</svg>