<?xml version="1.0" encoding="iso-8859-1"?>
<!-- Uploaded to: SVG Repo, www.svgrepo.com, Generator: SVG Repo Mixer Tools -->
<svg fill="#000000" height="800px" width="800px" version="1.1" id="Layer_1" xmlns="http://www.w3.org/2000/svg" xmlns:xlink="http://www.w3.org/1999/xlink" 
	 viewBox="0 0 512 512" xml:space="preserve">
<g>
	<g>
		<circle cx="153.556" cy="279.541" r="8.17"/>
	</g>
</g>
<g>
	<g>
		<circle cx="120.876" cy="312.222" r="8.17"/>
	</g>
</g>
<g>
	<g>
		<circle cx="186.237" cy="312.222" r="8.17"/>
	</g>
</g>
<g>
	<g>
		<circle cx="373.106" cy="318.638" r="8.17"/>
	</g>
</g>
<g>
	<g>
		<circle cx="405.787" cy="351.319" r="8.17"/>
	</g>
</g>
<g>
	<g>
		<circle cx="256" cy="89.872" r="8.17"/>
	</g>
</g>
<g>
	<g>
		<path d="M490.073,408.648c-1.338-39.07-12.411-77.223-32.233-110.815L309.967,47.188C298.737,28.16,278.058,16.34,256,16.34
			s-42.737,11.821-53.968,30.849l-65.633,111.248c-2.293,3.886-1.001,8.896,2.885,11.189c3.887,2.292,8.895,1.001,11.189-2.885
			l65.633-111.248C224.41,41.422,239.697,32.681,256,32.681s31.59,8.741,39.895,22.811l147.873,250.645
			c18.315,31.039,28.588,66.272,29.939,102.374H38.293c1.351-36.101,11.625-71.335,29.939-102.375l65.634-111.249
			c2.293-3.886,1.001-8.896-2.885-11.189c-3.889-2.294-8.896-1.001-11.189,2.885L54.159,297.83
			c-19.821,33.593-30.895,71.745-32.233,110.815C9.621,409.944,0,420.379,0,433.021c0,13.274,10.607,24.109,23.789,24.492
			l4.717,16.508c3.466,12.134,16.066,21.638,28.685,21.638h397.617c12.619,0,25.219-9.505,28.685-21.637l4.717-16.509
			C501.393,457.13,512,446.295,512,433.021C512,420.379,502.379,409.943,490.073,408.648z M467.782,469.533
			c-1.463,5.122-7.646,9.786-12.973,9.786H57.192c-5.327,0-11.51-4.665-12.973-9.786l-3.429-12.001h430.422L467.782,469.533z
			 M487.489,441.191H24.511c-4.506,0-8.17-3.665-8.17-8.17c0-4.506,3.665-8.17,8.17-8.17h462.979c4.506,0,8.17,3.665,8.17,8.17
			C495.66,437.527,491.995,441.191,487.489,441.191z"/>
	</g>
</g>
</svg>