<?xml version="1.0" encoding="iso-8859-1"?>
<!-- Uploaded to: SVG Repo, www.svgrepo.com, Generator: SVG Repo Mixer Tools -->
<svg fill="#000000" height="800px" width="800px" version="1.1" id="Layer_1" xmlns="http://www.w3.org/2000/svg" xmlns:xlink="http://www.w3.org/1999/xlink" 
	 viewBox="0 0 261.328 261.328" xml:space="preserve">
<g>
	<g>
		<g>
			<path d="M14.804,94.265c1.532,0,3.072-0.488,4.376-1.484c3.172-2.416,3.788-6.968,1.372-10.144
				c-1.172-1.536-2.868-2.528-4.784-2.784c-1.936-0.256-3.824,0.244-5.36,1.416c-1.536,1.172-2.528,2.872-2.784,4.788
				c-0.26,1.916,0.244,3.816,1.412,5.356C10.46,93.281,12.62,94.265,14.804,94.265z M10.432,86.437
				c0.156-1.164,0.76-2.2,1.696-2.912c0.772-0.596,1.704-0.904,2.66-0.904c0.2,0,0.4,0.012,0.596,0.04
				c1.168,0.16,2.2,0.764,2.912,1.696c1.472,1.928,1.096,4.7-0.832,6.172c-1.928,1.476-4.708,1.092-6.172-0.836
				C10.576,88.761,10.272,87.605,10.432,86.437z"/>
			<path d="M261.2,192.733c-0.816-11.928-5.452-22.352-12.08-29.272c-1.376-2.548-2.952-4.94-4.78-7.06
				c-6.148-7.144-13.9-10.752-22.004-10.228c-1.104,0.076-2.28,0.256-3.588,0.56l-0.688,0.188c-4.164,1.096-7.968,3.292-11.32,6.536
				c-4.192,1.38-9.028,2.288-14.02,2.628c-5.684,0.388-11.18,0.036-15.912-1.028c-3.084-2.148-6.34-3.576-9.692-4.248
				c-0.128-0.112-1.696-0.248-1.696-0.248c-1.664-0.216-3.088-0.272-4.46-0.176c-8.04,0.552-15.284,5.216-20.404,13.136
				c-3.684,5.7-5.892,12.624-6.56,20.008c-1.448-0.248-2.928-0.404-4.444-0.404c-4.176,0-8.1,1.044-11.62,2.812
				c-0.12-0.508-0.276-1.004-0.484-1.476v-45.104c0-0.036-0.008-0.08-0.008-0.116c0.168,0.004,0.328,0.052,0.496,0.052
				c0.276,0,0.556-0.016,0.848-0.048c1.416,3.728,4.976,6.236,9.048,6.236c5.352,0,9.708-4.356,9.708-9.708
				c0-3.568-2.016-6.852-5.12-8.528c0.2-0.972,0.296-1.86,0.296-2.732c0-8.148-6.628-14.776-14.776-14.776
				c-3.488,0-6.656,1.268-9.188,3.296c-5.628-9.172-14.152-17.796-26.044-22.236V53.101c-0.012,0.016-0.02,0.032-0.032,0.048
				c-0.148-3.156-4.416-5.192-9.928-6.14c-0.244-4.568-0.344-9.808,1.952-12.212c0.932-0.976,2.216-1.372,4.02-1.428
				c1.392,0.008,4.628-0.26,9.632-0.812c3.912-0.42,6.256-2.84,6.276-6.48c0.016-3.644-2.312-6.076-6.228-6.496
				c-0.948-0.1-1.916-0.092-2.856-0.072l-1,0.012c-4.564,0.044-9.128,0.016-13.696,0.032c-10.944,0.04-22.272,0.084-33.396-0.132
				c-6.6-0.108-12.456,1.116-17.972,3.792c-2.448,1.188-4.968,2.236-7.484,3.276c-2.368,0.984-4.732,1.968-7.044,3.064
				c-3.472,1.644-4.832,5.028-3.384,8.416c1.404,3.284,4.596,4.6,8.308,3.44c1.592-0.496,3.96-1.292,6.132-2.472
				c9.796-5.324,20.336-7.44,31.32-6.288c1.008,0.056,1.976,0.08,2.904,0.1c2.652,0.064,4.356,0.172,5.464,0.608
				c0.036,0.016,0.072,0.028,0.112,0.04c0.76,0.324,1.228,0.816,1.472,1.6c0.58,1.856,0.716,7.716,0.656,11.96
				c-4.496,0.732-8.188,2.176-9.62,4.344l-0.676,0.676v38.676c-25.72,9.248-34.748,37.652-34.748,48.7v41.604
				c-2.488,0.32-4.932,1.208-7.068,2.836c-6.488,4.944-7.748,14.248-2.804,20.736c2.396,3.14,5.872,5.164,9.784,5.696
				c0.028,0.004,0.056,0.004,0.084,0.004v21.58c0,9.82,46.924,10.104,52.276,10.104c3.612,0,26.144-0.14,40.424-3.248h64.236
				c0.152,0,0.296-0.036,0.448-0.044c1.04,0.152,2.08,0.284,3.132,0.284c0.512,0,1.028-0.064,1.54-0.052
				c1.724,0.052,6.584-1.304,6.904-1.624c2.532-1.028,4.916-2.504,7.096-4.396c4.496-1.864,9.936-3.056,15.756-3.452
				c5.1-0.356,10.06-0.052,14.392,0.872c3.092,2.14,6.388,3.544,9.8,4.164c0.18,0.156,2.404,0.34,2.404,0.34
				c1.048,0.076,2.084,0.084,3.144,0.02C250.712,233.665,262.712,214.801,261.2,192.733z M142.936,165.057
				c4.62-7.152,11.088-11.36,18.22-11.848c0.364-0.024,0.736-0.04,1.112-0.04c0.904,0,1.86,0.072,2.944,0.22l1.012,0.132
				c3.16,0.584,6.248,1.932,9.176,4.012l0.5,0.224c5.056,1.172,10.94,1.564,17.012,1.156c5.348-0.368,10.552-1.36,15.036-2.872
				l0.544-0.336c3.052-3.016,6.512-5.052,10.284-6.044l0.6-0.164c1.18-0.272,2.18-0.428,3.152-0.496
				c6.912-0.48,13.66,2.624,19.124,8.68c-3.952-2.148-8.252-3.252-12.696-2.952c-1.128,0.08-2.3,0.264-3.588,0.576l-0.68,0.192
				c-4.1,1.104-7.848,3.316-11.14,6.584c-3.964,1.324-8.544,2.2-13.28,2.524c-5.4,0.368-10.616,0.016-15.108-1.024
				c-2.988-2.132-6.136-3.572-9.376-4.276c-0.08-0.072-1.688-0.276-1.688-0.276c-1.732-0.244-3.204-0.304-4.628-0.216
				c-12.752,0.876-22.848,12.68-25.896,28.372c-2.068-1.3-4.324-2.324-6.724-3.012C137.428,177.101,139.44,170.469,142.936,165.057z
				 M117.94,112.573c6.584,0,11.94,5.356,11.94,11.94c0,0.948-0.152,1.952-0.48,3.16l0.864,1.696c2.7,1.028,4.44,3.54,4.44,6.404
				c0,3.788-3.084,6.872-6.872,6.872c-3.188,0-5.928-2.172-6.668-5.284l-1.824-1.04c-0.46,0.068-0.92,0.136-1.404,0.136
				c-6.584,0-11.94-5.356-11.94-11.94C105.996,117.933,111.356,112.573,117.94,112.573z M115.352,187.921
				c0,3.208-2.608,5.816-5.816,5.816c-3.212,0-5.82-2.608-5.82-5.816s2.608-5.816,5.82-5.816
				C112.74,182.105,115.352,184.713,115.352,187.921z M56.54,30.653c-1.768-0.624-3.964-0.692-6.24-0.748
				c-0.892-0.008-1.832-0.032-2.736-0.08c-11.52-1.196-22.584,1.024-32.9,6.62c-1.956,1.064-4.148,1.796-5.624,2.26
				c-1.636,0.508-3.808,0.604-4.856-1.856c-0.848-1.976-0.104-3.748,1.984-4.74c2.272-1.076,4.596-2.04,6.916-3.008
				c2.52-1.044,5.124-2.124,7.632-3.34c5.18-2.512,10.468-3.684,16.684-3.512c11.16,0.208,22.496,0.176,33.46,0.132
				c4.564-0.016,9.136-0.048,13.684-0.032l1.052-0.012c0.832-0.024,1.676-0.036,2.5,0.056c2.46,0.26,3.704,1.496,3.696,3.664
				c-0.012,2.204-1.24,3.404-3.752,3.672c-6.096,0.672-8.428,0.776-9.3,0.796c-0.644-0.016-1.264,0.032-1.852,0.128H56.54z
				 M69.98,48.361c0.052,0.916,0.1,1.796,0.128,2.616c-0.488,0.356-2.196,0.916-4.752,0.916c-2.512,0-4.208-0.544-4.732-0.904
				c0.236-2.86,0.356-13.66-0.64-16.836c-0.076-0.248-0.196-0.44-0.296-0.66h12.464C69.388,37.129,69.696,43.313,69.98,48.361z
				 M57.868,49.757c-0.028,0.628-0.064,1.156-0.104,1.472c0,2.584,4.088,3.504,7.592,3.504c3.5,0,7.588-0.916,7.588-3.504
				l-0.16-0.212l0.16-0.008c-0.012-0.368-0.04-0.792-0.056-1.184c4.544,0.92,6.98,2.512,6.98,3.488
				c0,1.432-5.188,4.224-14.696,4.224s-14.696-2.788-14.696-4.224C50.48,52.309,53.072,50.665,57.868,49.757z M79.872,57.293v33.832
				c-0.128,0.98-5.288,3.272-14.696,3.272c-9.408,0-14.568-2.288-14.696-3.268V57.293c3.292,2.02,8.992,3.08,14.696,3.08
				C70.88,60.373,76.58,59.313,79.872,57.293z M13.192,207.421c-0.068-0.008-0.132-0.036-0.2-0.048
				c-0.028-0.028-0.064-0.048-0.092-0.076v0.056c-3.044-0.492-5.744-2.08-7.616-4.54c-3.996-5.248-2.98-12.76,2.264-16.756
				c2.16-1.648,4.704-2.44,7.232-2.44c3.608,0,7.18,1.62,9.528,4.708c3.992,5.248,2.976,12.764-2.268,16.756
				C19.5,207.017,16.372,207.841,13.192,207.421z M65.18,237.945c-31.224,0.004-47.132-4.208-48.312-6.132v-21.616
				c2.48-0.348,4.844-1.304,6.892-2.86c6.488-4.94,7.748-14.244,2.808-20.736c-2.452-3.216-5.98-5.14-9.7-5.668v-41.576
				c0-11.732,9.76-37.036,32.936-45.144c3.172,2.044,9.404,3.024,15.376,3.024c6.004,0,12.272-0.988,15.428-3.056
				c12.02,4.18,20.124,12.916,25.276,21.848c-1.696,2.408-2.716,5.324-2.716,8.484c0,6.572,4.34,12.088,10.28,14.004
				c0.016,0.288,0.04,0.588,0.04,0.84v40.908c-1.188-0.616-2.52-1-3.948-1c-4.772,0-8.656,3.884-8.656,8.652
				c0,3.844,2.536,7.072,6.012,8.196c-1.584,2.604-2.764,5.484-3.344,8.612c-7.136,0.76-12.712,6.816-12.712,14.148
				c0,2.016,0.44,3.984,1.316,5.868c-0.864,1.432-1.316,3.032-1.316,4.692c0,2.832,1.308,5.336,3.32,7.032
				C86.684,237.337,77.04,237.945,65.18,237.945z M169.832,234.705h-69.76c-2.904,0-5.264-2.364-5.264-5.268
				c0-1.488,0.652-2.608,1.204-3.284l0.184-2.232c-0.92-1.616-1.388-3.312-1.388-5.044c0-5.66,4.6-10.26,10.052-10.276l0.404,0.036
				l1.968-1.748c0.48-3.988,2.068-7.556,4.336-10.58c2.9-0.704,5.204-2.86,6.144-5.66c3.464-2.196,7.488-3.556,11.852-3.556
				c12.4,0,22.5,10.096,22.5,22.508c0,1.804-0.244,3.672-0.72,5.556l2.516,2.384c0.836-0.264,1.548-0.388,2.232-0.388
				c3.356,0,6.308,2.28,7.184,5.552l1.916,1.468h4.64c2.908,0,5.268,2.364,5.268,5.264
				C175.1,232.345,172.736,234.705,169.832,234.705z M234.176,230.821c-0.916,0.064-1.812,0.044-2.708-0.024l-1.412-0.204
				c-3.116-0.492-6.14-1.772-8.992-3.808l-0.724-0.32c-4.78-1.06-10.276-1.412-15.904-1.04c-6.388,0.44-12.38,1.78-17.328,3.88
				l-0.544,0.344c-2.004,1.78-4.2,3.136-6.528,4.036l-1.884,0.588c-0.204,0.056-0.372,0.08-0.564,0.128
				c0.924-1.436,1.476-3.136,1.476-4.968c0-5.088-4.144-9.236-9.24-9.236h-3.228c-1.804-4.296-6.072-7.224-10.832-7.016
				c0.172-1.208,0.256-2.408,0.256-3.584c0-7.856-3.46-14.904-8.912-19.756c2.22-14.912,11.172-26.292,22.624-27.076
				c0.324-0.024,0.652-0.036,0.992-0.036c0.856,0,1.768,0.076,2.808,0.22l0.948,0.132c2.964,0.572,5.876,1.896,8.648,3.928
				l0.712,0.332c4.968,1.2,10.744,1.624,16.692,1.216c5.252-0.364,10.352-1.36,14.744-2.884l0.764-0.488
				c2.872-2.932,6.124-4.912,9.672-5.868c0,0,2.604-0.572,3.512-0.632c14.108-1.096,26.644,14.432,28.004,34.316
				C258.6,212.893,248.256,229.857,234.176,230.821z"/>
			<path d="M136.124,110.145c4.344,0,7.876-3.532,7.876-7.876c0-4.34-3.532-7.872-7.876-7.872s-7.876,3.532-7.876,7.872
				C128.248,106.613,131.78,110.145,136.124,110.145z M136.124,97.237c2.776,0,5.04,2.256,5.04,5.036c0,2.78-2.26,5.04-5.04,5.04
				c-2.78,0-5.04-2.26-5.04-5.04C131.084,99.493,133.348,97.237,136.124,97.237z"/>
			<path d="M183.876,142.853c8.156,0,14.792-6.636,14.792-14.792s-6.636-14.792-14.792-14.792s-14.792,6.636-14.792,14.792
				C169.084,136.217,175.72,142.853,183.876,142.853z M183.876,116.105c6.592,0,11.956,5.364,11.956,11.956
				c0,6.592-5.364,11.956-11.956,11.956s-11.956-5.364-11.956-11.956S177.28,116.105,183.876,116.105z"/>
			<path d="M214.144,117.749c3.992,0,7.24-3.248,7.24-7.244c0-3.996-3.248-7.24-7.24-7.24s-7.244,3.248-7.244,7.24
				S210.152,117.749,214.144,117.749z M214.144,106.105c2.428,0,4.404,1.972,4.404,4.404s-1.972,4.408-4.404,4.408
				c-2.428,0-4.408-1.976-4.408-4.408S211.716,106.105,214.144,106.105z"/>
			<path d="M105.608,154.885c0-21.304-17.352-38.632-38.68-38.632c-21.332,0-38.684,17.328-38.684,38.632
				s17.352,38.636,38.684,38.636C88.256,193.521,105.608,176.189,105.608,154.885z M66.928,191.257
				c-20.084,0-36.416-16.316-36.416-36.372c0-20.052,16.336-36.368,36.416-36.368s36.416,16.316,36.416,36.368
				C103.344,174.941,87.008,191.257,66.928,191.257z"/>
			<path d="M87.568,144.897c-3.704-1.284-7.648-2.404-11.884-1.06c-0.872-4.672-3.888-7.692-6.704-10.184
				c-0.596-0.524-1.156-0.868-1.708-1.044c-0.228-0.08-0.464-0.076-0.692-0.004c-0.56,0.18-1.12,0.524-1.712,1.048
				c-2.816,2.488-5.832,5.508-6.708,10.184c-4.228-1.332-8.176-0.228-11.88,1.06c-2,0.688-2.764,2.032-2.34,4.1
				c1.008,4.976,2.336,9.64,7.096,12.084c-1.784,2.1-2.776,4.696-3.092,8.02c-0.124,1.296,1.064,2.956,2.12,3.408
				c3.368,1.432,7.676,2.66,11.76-0.14c1.956,2.676,3.252,4.3,4.74,4.792c0.116,0.036,0.236,0.056,0.356,0.056
				s0.24-0.02,0.356-0.056c1.48-0.488,2.772-2.112,4.736-4.792c4.072,2.796,8.388,1.576,11.756,0.14
				c1.164-0.488,2.24-2.208,2.128-3.408c-0.316-3.324-1.312-5.916-3.096-8.02c4.76-2.44,6.088-7.108,7.096-12.084
				C90.332,146.929,89.568,145.585,87.568,144.897z M60.232,145.497c0.352-4.224,2.712-7.108,6.148-10.144
				c0.2-0.176,0.384-0.316,0.552-0.416c0.168,0.1,0.352,0.244,0.556,0.416c3.432,3.04,5.792,5.924,6.14,10.144
				c0.02,0.276,0.164,0.508,0.36,0.696l-4.156,4.52c-0.896,0.972-2.12,2.308-2.1,3.944c0,0.412,0.092,0.768,0.28,1.072
				c0.22,0.34,0.528,0.564,0.82,0.756c0.084,0.056,0.176,0.1,0.26,0.156c0.016,0.024,0.004,0.06,0.024,0.084
				c2.404,3.04,3.088,6.28,1.936,9.024c-1.268-0.932-2.272-1.948-2.872-2.908c-0.032-0.052-0.096-0.06-0.14-0.104
				c-0.04-0.04-0.048-0.104-0.1-0.136c-0.036-0.024-0.076-0.004-0.116-0.02c-0.088-0.04-0.168-0.044-0.264-0.044
				c-0.104,0-0.188,0.004-0.284,0.048c-0.036,0.016-0.076-0.004-0.108,0.02c-0.052,0.032-0.056,0.092-0.096,0.132
				c-0.044,0.044-0.108,0.048-0.144,0.104c-0.596,0.956-1.6,1.972-2.872,2.908c-1.152-2.744-0.464-5.984,1.94-9.024
				c0.052-0.068,0.036-0.148,0.064-0.224c0.256-0.168,0.544-0.344,0.748-0.64c0.208-0.296,0.312-0.656,0.32-1.092
				c0.024-1.68-1.332-3.028-2.32-4.016l-4.752-4.736C60.156,145.857,60.216,145.685,60.232,145.497z M46.168,148.545
				c-0.2-0.972-0.08-1.184,0.864-1.508c3.708-1.288,7.364-2.276,11.232-0.732l5.508,5.492c1,0.996,1.9,1.972,1.884,2.944
				c0,0.132-0.02,0.224-0.06,0.276c-0.072,0.104-0.288,0.244-0.444,0.344c-3.44,2.132-7.54,3.576-11.864,4.224
				C48.42,157.789,47.18,153.521,46.168,148.545z M83.648,169.297c-0.012,0.296-0.484,1-0.756,1.124
				c-4.56,1.952-7.664,1.792-10.364-0.52c-0.24-0.204-0.536-0.316-0.876-0.256c-0.316,0.036-0.604,0.212-0.792,0.464
				c-1.708,2.344-2.996,4.116-3.928,4.72c-0.948-0.616-2.292-2.464-3.944-4.736c-0.188-0.252-0.472-0.42-0.784-0.456
				c-0.048-0.008-0.088-0.008-0.132-0.008c-0.268,0-0.532,0.092-0.74,0.272c-2.696,2.308-5.808,2.468-10.364,0.52
				c-0.268-0.124-0.744-0.828-0.752-1.1c0.328-3.456,1.424-5.86,3.552-7.788c0.176-0.16,0.272-0.376,0.324-0.6
				c3.32-0.556,6.5-1.556,9.368-2.976c-1.7,3.164-1.864,6.496-0.324,9.244c0.1,0.18,0.272,0.308,0.472,0.356
				c0.056,0.016,0.112,0.024,0.172,0.024c0.144,0,0.284-0.044,0.408-0.124c1.388-0.916,2.544-1.948,3.376-2.98
				c0.832,1.032,1.988,2.064,3.376,2.98c0.12,0.084,0.26,0.124,0.408,0.124c0.06,0,0.116-0.008,0.172-0.024
				c0.2-0.048,0.372-0.176,0.472-0.356c1.5-2.68,1.388-5.908-0.192-9c2.468,1.24,5.168,2.116,7.976,2.612
				c0.032,0.272,0.124,0.532,0.332,0.72C82.224,163.465,83.32,165.865,83.648,169.297z M87.688,148.545
				c-1,4.92-2.236,9.132-6.96,10.964c-0.004,0-0.004-0.004-0.004-0.004c-4.036-0.6-7.86-2.072-11.072-4.244
				c-0.124-0.084-0.332-0.22-0.396-0.32c-0.036-0.06-0.056-0.156-0.056-0.292c-0.012-0.98,0.8-1.948,1.712-2.936l5.12-5.568
				c3.7-1.3,7.228-0.344,10.796,0.892C87.764,147.361,87.888,147.573,87.688,148.545z"/>
			<path d="M238.332,180.881c2.572,0,2.58-4,0-4C235.756,176.881,235.752,180.881,238.332,180.881z"/>
			<path d="M215.388,179.533c-2.576,0-2.58,4,0,4C217.96,183.533,217.968,179.533,215.388,179.533z"/>
			<path d="M197.248,208.897c-2.572,0-2.576,4,0,4C199.82,212.897,199.828,208.897,197.248,208.897z"/>
			<path d="M203.672,192.085c-2.576,0-2.58,4,0,4C206.244,196.085,206.252,192.085,203.672,192.085z"/>
			<path d="M218.176,214.609c-2.572,0-2.576,4,0,4C220.748,218.609,220.756,214.609,218.176,214.609z"/>
			<path d="M223.04,197.289c-2.576,0-2.58,4,0,4C225.612,201.289,225.62,197.289,223.04,197.289z"/>
			<path d="M236.064,207.673c-2.576,0-2.58,4,0,4C238.636,211.673,238.644,207.673,236.064,207.673z"/>
			<path d="M239.556,193.065c-2.572,0-2.576,4,0,4C242.128,197.065,242.136,193.065,239.556,193.065z"/>
			<path d="M227.2,167.833c-2.572,0-2.576,4,0,4C229.772,171.833,229.78,167.833,227.2,167.833z"/>
			<path d="M197.248,176.881c-2.572,0-2.576,4,0,4C199.82,180.881,199.828,176.881,197.248,176.881z"/>
			<path d="M166.824,174.081c-2.572,0-2.58,4,0,4C169.396,178.081,169.404,174.081,166.824,174.081z"/>
			<path d="M183.876,185.921c-2.576,0-2.58,4,0,4C186.448,189.921,186.456,185.921,183.876,185.921z"/>
			<path d="M169.248,185.921c-2.572,0-2.576,4,0,4C171.82,189.921,171.828,185.921,169.248,185.921z"/>
			<path d="M161.824,202.245c-2.572,0-2.58,4,0,4C164.396,206.245,164.404,202.245,161.824,202.245z"/>
			<path d="M179.324,202.245c-2.572,0-2.58,4,0,4C181.896,206.245,181.904,202.245,179.324,202.245z"/>
		</g>
	</g>
</g>
</svg>